<svg xmlns="http://www.w3.org/2000/svg" width="860" height="338" viewBox="0 0 860 338" role="img"><title>Tech stack</title><style>
text{font-family:-apple-system,'Segoe UI',Helvetica,Arial,sans-serif;fill:#c9d1d9}
.m{font-family:ui-monospace,SFMono-Regular,Menlo,Consolas,monospace;fill:#8b949e}
.d{fill:#8b949e}
.h{font-weight:600;font-size:16px;fill:#f0f6fc}
.b{font-size:14px}
.a{animation:in .7s cubic-bezier(.16,1,.3,1) backwards}
@keyframes in{from{opacity:0;transform:translateY(8px)}}
@media (prefers-reduced-motion:reduce){.a{animation:none}}
</style><rect width="860" height="338" rx="8" fill="#0d1117" stroke="#30363d"/><g class="a" style="animation-delay:0ms"><text class="m" x="152" y="58" text-anchor="end" font-size="12">Languages</text><rect x="176" y="40" width="51" height="26" rx="6" fill="#161b22" stroke="#30363d"/><text class="b" x="201.5" y="58" text-anchor="middle" font-size="13">Java</text><rect x="235" y="40" width="38" height="26" rx="6" fill="#161b22" stroke="#30363d"/><text class="b" x="254.0" y="58" text-anchor="middle" font-size="13">C#</text><rect x="281" y="40" width="92" height="26" rx="6" fill="#161b22" stroke="#30363d"/><text class="b" x="327.0" y="58" text-anchor="middle" font-size="13">TypeScript</text><rect x="381" y="40" width="44" height="26" rx="6" fill="#161b22" stroke="#30363d"/><text class="b" x="403.0" y="58" text-anchor="middle" font-size="13">C++</text><rect x="433" y="40" width="65" height="26" rx="6" fill="#161b22" stroke="#30363d"/><text class="b" x="465.5" y="58" text-anchor="middle" font-size="13">Python</text></g><g class="a" style="animation-delay:120ms"><text class="m" x="152" y="108" text-anchor="end" font-size="12">Frameworks</text><rect x="176" y="90" width="99" height="26" rx="6" fill="#161b22" stroke="#30363d"/><text class="b" x="225.5" y="108" text-anchor="middle" font-size="13">Spring Boot</text><rect x="283" y="90" width="106" height="26" rx="6" fill="#161b22" stroke="#30363d"/><text class="b" x="336.0" y="108" text-anchor="middle" font-size="13">ASP.NET Core</text><rect x="397" y="90" width="65" height="26" rx="6" fill="#161b22" stroke="#30363d"/><text class="b" x="429.5" y="108" text-anchor="middle" font-size="13">NestJS</text><rect x="470" y="90" width="72" height="26" rx="6" fill="#161b22" stroke="#30363d"/><text class="b" x="506.0" y="108" text-anchor="middle" font-size="13">Angular</text><rect x="550" y="90" width="58" height="26" rx="6" fill="#161b22" stroke="#30363d"/><text class="b" x="579.0" y="108" text-anchor="middle" font-size="13">React</text><rect x="616" y="90" width="72" height="26" rx="6" fill="#161b22" stroke="#30363d"/><text class="b" x="652.0" y="108" text-anchor="middle" font-size="13">Next.js</text></g><g class="a" style="animation-delay:240ms"><text class="m" x="152" y="158" text-anchor="end" font-size="12">Infrastructure</text><rect x="176" y="140" width="92" height="26" rx="6" fill="#161b22" stroke="#30363d"/><text class="b" x="222.0" y="158" text-anchor="middle" font-size="13">Kubernetes</text><rect x="276" y="140" width="85" height="26" rx="6" fill="#161b22" stroke="#30363d"/><text class="b" x="318.5" y="158" text-anchor="middle" font-size="13">OpenShift</text><rect x="369" y="140" width="65" height="26" rx="6" fill="#161b22" stroke="#30363d"/><text class="b" x="401.5" y="158" text-anchor="middle" font-size="13">Docker</text><rect x="442" y="140" width="51" height="26" rx="6" fill="#161b22" stroke="#30363d"/><text class="b" x="467.5" y="158" text-anchor="middle" font-size="13">Helm</text><rect x="501" y="140" width="72" height="26" rx="6" fill="#161b22" stroke="#30363d"/><text class="b" x="537.0" y="158" text-anchor="middle" font-size="13">Argo CD</text><rect x="581" y="140" width="92" height="26" rx="6" fill="#161b22" stroke="#30363d"/><text class="b" x="627.0" y="158" text-anchor="middle" font-size="13">Proxmox VE</text><rect x="681" y="140" width="72" height="26" rx="6" fill="#161b22" stroke="#30363d"/><text class="b" x="717.0" y="158" text-anchor="middle" font-size="13">Ansible</text><rect x="176" y="176" width="85" height="26" rx="6" fill="#161b22" stroke="#30363d"/><text class="b" x="218.5" y="194" text-anchor="middle" font-size="13">GitLab CI</text><rect x="269" y="176" width="119" height="26" rx="6" fill="#161b22" stroke="#30363d"/><text class="b" x="328.5" y="194" text-anchor="middle" font-size="13">GitHub Actions</text></g><g class="a" style="animation-delay:360ms"><text class="m" x="152" y="244" text-anchor="end" font-size="12">Cloud</text><rect x="176" y="226" width="167" height="26" rx="6" fill="#161b22" stroke="#30363d"/><text class="b" x="259.5" y="244" text-anchor="middle" font-size="13">Google Compute Engine</text><rect x="351" y="226" width="208" height="26" rx="6" fill="#161b22" stroke="#30363d"/><text class="b" x="455.0" y="244" text-anchor="middle" font-size="13">Oracle Cloud Infrastructure</text></g><g class="a" style="animation-delay:480ms"><text class="m" x="152" y="294" text-anchor="end" font-size="12">Data</text><rect x="176" y="276" width="92" height="26" rx="6" fill="#161b22" stroke="#30363d"/><text class="b" x="222.0" y="294" text-anchor="middle" font-size="13">PostgreSQL</text><rect x="276" y="276" width="58" height="26" rx="6" fill="#161b22" stroke="#30363d"/><text class="b" x="305.0" y="294" text-anchor="middle" font-size="13">MySQL</text><rect x="342" y="276" width="72" height="26" rx="6" fill="#161b22" stroke="#30363d"/><text class="b" x="378.0" y="294" text-anchor="middle" font-size="13">MariaDB</text><rect x="422" y="276" width="44" height="26" rx="6" fill="#161b22" stroke="#30363d"/><text class="b" x="444.0" y="294" text-anchor="middle" font-size="13">JPA</text><rect x="474" y="276" width="85" height="26" rx="6" fill="#161b22" stroke="#30363d"/><text class="b" x="516.5" y="294" text-anchor="middle" font-size="13">Hibernate</text><rect x="567" y="276" width="133" height="26" rx="6" fill="#161b22" stroke="#30363d"/><text class="b" x="633.5" y="294" text-anchor="middle" font-size="13">Entity Framework</text><rect x="708" y="276" width="72" height="26" rx="6" fill="#161b22" stroke="#30363d"/><text class="b" x="744.0" y="294" text-anchor="middle" font-size="13">Drizzle</text></g></svg>